Coordinates
version=1
nRows=7
nColumns=42
inDegrees=yes

Units are S.I. units (second, meters, Newtons, ...)
If the header above contains a line with 'inDegrees', this indicates whether rotational values are in degrees (yes) or radians (no).

endheader
time	pelvis_tilt	pelvis_list	pelvis_rotation	pelvis_tx	pelvis_ty	pelvis_tz	hip_flexion_r	hip_adduction_r	hip_rotation_r	knee_angle_r	knee_adduction_r	knee_angle_r_beta	ankle_angle_r	subtalar_angle_r	mtp_angle_r	hip_flexion_l	hip_adduction_l	hip_rotation_l	knee_angle_l	knee_adduction_l	knee_angle_l_beta	ankle_angle_l	subtalar_angle_l	mtp_angle_l	lumbar_extension	lumbar_bending	lumbar_rotation	arm_flex_r	arm_add_r	arm_rot_r	elbow_flex_r	pro_sup_r	wrist_flex_r	wrist_dev_r	arm_flex_l	arm_add_l	arm_rot_l	elbow_flex_l	pro_sup_l	wrist_flex_l	wrist_dev_l
      1.01000000	     -2.59775659	     -3.81207106	      9.35716731	     -0.06362220	      0.87100411	     -0.25168607	     21.37202253	     -1.64881428	     -9.31748496	     19.93585050	     12.23686571	      0.34794623	      3.02745032	     -7.03113417	     -7.66523230	      1.29438184	    -18.63527833	     13.45294163	     50.42018981	     27.87213212	      0.87999832	    -12.07528504	     -4.24132302	     -7.66523230	    -11.37264006	      8.91893509	     -4.36261880	     -6.37329357	    -15.00464725	    -11.24975701	     21.64843654	     90.00000001	      0.00000000	      0.00000000	     -2.84620441	    -15.29795724	      0.29208944	     34.85044718	     90.00000001	      0.00000000	      0.00000000
      1.02000000	     -2.58826160	     -3.87851977	      9.08409067	     -0.05233963	      0.87254478	     -0.25069469	     20.39858541	     -1.32204079	     -9.28980545	     19.61458441	     12.35217611	      0.34233908	      3.65865402	     -6.64428124	     -7.66353490	      2.90043946	    -18.72667775	     14.51522051	     52.98469706	     28.38951555	      0.92475742	    -12.11424443	     -4.61601626	     -7.66353490	    -11.43905272	      8.98961381	     -3.97026307	     -5.92342330	    -15.03881610	    -11.17300059	     21.80317341	     90.00000001	      0.00000000	      0.00000000	     -3.33345339	    -15.01312458	      0.43364429	     34.37849050	     90.00000001	      0.00000000	      0.00000000
      1.03000000	     -2.71229959	     -3.91368515	      8.70634193	     -0.04125152	      0.87395954	     -0.24963018	     19.62317316	     -0.95888498	     -9.21868764	     19.34425407	     12.23942827	      0.33762092	      4.43115336	     -5.84709863	     -7.65964015	      4.67948468	    -18.69210556	     14.89333382	     55.59351307	     28.37043209	      0.97028985	    -11.69662304	     -4.78009924	     -7.65964015	    -11.36719058	      8.98950532	     -3.52226147	     -5.48725937	    -15.13010321	    -10.98578766	     22.06153455	     90.00000001	      0.00000000	      0.00000000	     -3.77999520	    -14.75704739	      0.68626679	     33.58432906	     90.00000001	      0.00000000	      0.00000000
      1.04000000	     -2.64971527	     -3.79767158	      8.26701252	     -0.03010650	      0.87562893	     -0.24865374	     18.61276273	     -0.83888779	     -9.19950191	     19.13171145	     12.35572857	      0.33391136	      4.93701972	     -5.27876229	     -7.65702425	      6.09341397	    -18.47971985	     15.35946844	     57.72031097	     28.50740252	      1.00740947	    -10.84811594	     -4.78519829	     -7.65702425	    -11.50025389	      8.82876545	     -3.04038774	     -5.06034384	    -15.18293474	    -10.83474478	     22.34101140	     90.00000001	      0.00000000	      0.00000000	     -4.18700920	    -14.52184860	      0.86144938	     33.06054391	     90.00000001	      0.00000000	      0.00000000
      1.05000000	     -2.81505853	     -3.81143908	      7.79197865	     -0.01916289	      0.87706327	     -0.24754762	     17.78846500	     -0.45634811	     -8.97361258	     18.61057021	     12.19986738	      0.32481573	      5.73889778	     -4.35132072	     -7.65277767	      7.85207837	    -18.36824452	     15.26073622	     59.85093823	     28.17451609	      1.04459593	     -8.97765649	     -4.24957879	     -7.65277767	    -11.35502833	      8.76126547	     -2.53532957	     -4.59772837	    -15.30065477	    -10.49428899	     22.57932180	     90.00000001	      0.00000000	      0.00000000	     -4.55242857	    -14.23840623	      1.23565082	     31.92526327	     90.00000001	      0.00000000	      0.00000000
      1.06000000	     -2.74707762	     -3.70842017	      7.26205749	     -0.00817902	      0.87869139	     -0.24644309	     16.73436816	     -0.25924078	     -9.12046384	     18.29141529	     12.12007935	      0.31924542	      6.39184660	     -3.09084896	     -7.63876581	      9.34481624	    -18.11822442	     13.71637342	     62.07344016	     26.51333111	      1.08338591	     -6.26722568	     -0.51985962	     -7.63876581	    -11.48006300	      8.56718768	     -1.92796011	     -4.26743504	    -15.50065630	     -9.48722778	     22.93930744	     90.00000001	      0.00000000	      0.00000000	     -4.60081052	    -13.99793385	      2.00346404	     30.37491659	     90.00000001	      0.00000000	      0.00000000
      1.07000000	     -2.77449300	     -3.58581583	      6.76436996	      0.00263057	      0.88030969	     -0.24538462	     15.69353584	     -0.09014840	     -8.99273614	     17.71530803	     12.09070121	      0.30919045	      6.80102141	     -2.53657303	     -7.63615379	     10.80083434	    -17.88729001	     13.87207344	     63.33883694	     26.59099680	      1.10547125	     -4.55612298	     -0.63157885	     -7.63615379	    -11.51148979	      8.33646784	     -1.50961485	     -3.77524962	    -15.55317014	     -9.37283426	     23.32925307	     90.00000001	      0.00000000	      0.00000000	     -5.18150568	    -13.75390906	      2.07993575	     30.10378238	     90.00000001	      0.00000000	      0.00000000
